<svg xmlns="http://www.w3.org/2000/svg" viewBox="0 0 24 24" fill="none">
  <path d="M11.2 0c-.2.1-.3.3-.2.5l1.5 4.8c0 .2.2.3.4.3.2 0 .3-.2.3-.4l-1.5-4.8c-.1-.2-.3-.4-.5-.4z" fill="#fff"/>
  <path d="M7.2 1.3c-.2.1-.2.3-.1.5l2.6 4.4c.1.1.3.2.4.1.2-.1.2-.3.1-.4L7.6 1.4c-.1-.2-.3-.2-.4-.1z" fill="#fff"/>
  <path d="M4 3.4c-.1.1-.1.4 0 .5l3.5 3.7c.1.1.3.1.4 0 .1-.1.1-.3 0-.4L4.4 3.4c-.1-.1-.3-.1-.4 0z" fill="#fff"/>
  <path d="M1.8 6.3c-.1.2 0 .4.1.5l4.1 2.8c.1.1.3 0 .4-.1.1-.1 0-.3-.1-.4L2.2 6.3c-.1-.1-.3 0-.4 0z" fill="#fff"/>
  <path d="M.7 9.8c0 .2.2.3.3.4l4.5 1.7c.2 0 .3-.1.4-.2 0-.2-.1-.3-.2-.4L1.1 9.6c-.2-.1-.4 0-.4.2z" fill="#fff"/>
  <path d="M.9 13.5c0 .2.2.3.4.3l4.7.5c.2 0 .3-.1.3-.3 0-.2-.1-.3-.3-.3l-4.7-.5c-.2 0-.4.1-.4.3z" fill="#fff"/>
  <path d="M2.3 16.9c.1.2.3.2.5.2l4.5-.8c.2 0 .3-.2.2-.4 0-.2-.2-.3-.4-.2l-4.5.8c-.2 0-.3.2-.3.4z" fill="#fff"/>
  <path d="M4.8 19.8c.1.1.3.2.5.1l4.1-2c.1-.1.2-.3.1-.4-.1-.1-.3-.2-.4-.1l-4.1 2c-.2.1-.2.3-.2.4z" fill="#fff"/>
  <path d="M8.1 21.8c.2.1.4.1.5 0l3.3-3c.1-.1.1-.3 0-.4-.1-.1-.3-.1-.4 0l-3.3 3c-.1.1-.2.3-.1.4z" fill="#fff"/>
  <path d="M12 22.8c.2 0 .4-.1.4-.3l2.3-3.8c.1-.1 0-.3-.1-.4-.1-.1-.3 0-.4.1l-2.3 3.8c-.1.2 0 .4.1.6z" fill="#fff"/>
  <path d="M16.1 22.6c.2 0 .3-.2.3-.4l1.1-4.2c0-.2-.1-.3-.3-.4-.2 0-.3.1-.4.3l-1.1 4.2c0 .2.2.4.4.5z" fill="#fff"/>
  <path d="M20.1 21.3c.1-.1.2-.3.1-.5l-.2-4.4c0-.2-.2-.3-.3-.3-.2 0-.3.2-.3.3l.2 4.4c0 .2.3.4.5.5z" fill="#fff"/>
  <path d="M23.5 18.9c.1-.1.1-.3-.1-.5l-1.5-4.1c-.1-.2-.3-.2-.4-.1-.2.1-.2.3-.1.4l1.5 4.1c.1.2.4.3.6.2z" fill="#fff"/>
  <path d="M25.9 15.7c0-.2-.1-.3-.3-.4l-2.7-3.5c-.1-.1-.3-.1-.4 0-.1.1-.1.3 0 .4l2.7 3.5c.1.1.4.2.7 0z" fill="#fff"/>
  <path d="M27.2 11.9c0-.2-.2-.3-.4-.3l-3.7-2.6c-.1-.1-.3 0-.4.1-.1.1 0 .3.1.4l3.7 2.6c.2.1.5 0 .7-.2z" fill="#fff"/>
  <path d="M27.3 7.9c-.1-.2-.3-.2-.5-.1l-4.3-1.5c-.2-.1-.3.1-.4.2-.1.2.1.3.2.4l4.3 1.5c.2.1.5-.1.7-.5z" fill="#fff"/>
</svg> 